<svg id="Layer_1" data-name="Layer 1" xmlns="http://www.w3.org/2000/svg" viewBox="0 0 613.8 242.36"><defs><style>.cls-1{fill:#fff;}.cls-2{fill:#36c3ea;}</style></defs><title>logo-white</title><polygon class="cls-1" points="22.04 135.57 33.99 135.71 104.64 0.43 93.33 0 22.04 135.57"/><polygon class="cls-1" points="217.51 242.36 228.56 241.93 108.09 0.43 94.32 0.43 217.51 242.36"/><polygon class="cls-2" points="199.3 101.79 186.01 101.82 132.4 0.07 145.95 0.43 199.3 101.79"/><path class="cls-1" d="M249.44,90.13A46.46,46.46,0,0,1,268.18,94a39.71,39.71,0,0,1,14.87,11.2v-39h9.82v99.1h-9.82V151.7a39.77,39.77,0,0,1-14.87,11.42,47,47,0,0,1-35.39.85,44.28,44.28,0,0,1-13.59-8.23,38.62,38.62,0,0,1-9.2-12.23,34.75,34.75,0,0,1,0-29.91,39.48,39.48,0,0,1,9.17-12.27,43,43,0,0,1,13.59-8.22A46.33,46.33,0,0,1,249.44,90.13Zm33.61,38.28a26.33,26.33,0,0,0-2.65-11.7,31.86,31.86,0,0,0-7.16-9.57,33.22,33.22,0,0,0-10.53-6.45,35.44,35.44,0,0,0-13-2.34,34.72,34.72,0,0,0-23.41,8.94,31.39,31.39,0,0,0-7.15,9.64,27.24,27.24,0,0,0-.08,23.32,30.16,30.16,0,0,0,7.07,9.57,33.16,33.16,0,0,0,10.54,6.45,36.73,36.73,0,0,0,26-.07,34.46,34.46,0,0,0,10.61-6.52,31.29,31.29,0,0,0,7.16-9.57A26.45,26.45,0,0,0,283.05,128.41Z"/><path class="cls-2" d="M589.43,164.45a44.21,44.21,0,0,1-18.13,3.77,43.66,43.66,0,0,1-16.09-3,43,43,0,0,1-13.14-7.95,37.16,37.16,0,0,1-8.86-11.76,33.7,33.7,0,0,1,0-28.93,38.09,38.09,0,0,1,8.87-11.85,41.25,41.25,0,0,1,13.14-8,46.29,46.29,0,0,1,34.21.82,38.45,38.45,0,0,1,14.38,11V70.76h9.49l-.13,104.91-10-4.73m.75-34.29c-.12-1.92-.16-3.7-.16-5.71a25.54,25.54,0,0,0-2.46-11.31,30.21,30.21,0,0,0-6.92-9.25,32.51,32.51,0,0,0-10.19-6.24,34.34,34.34,0,0,0-12.52-2.26,33.54,33.54,0,0,0-22.7,8.63,30.07,30.07,0,0,0-6.92,9.32,26.38,26.38,0,0,0-.08,22.55,29.27,29.27,0,0,0,6.84,9.25A31.92,31.92,0,0,0,559,157.87a34.34,34.34,0,0,0,12.52,2.26,33.87,33.87,0,0,0,12.59-2.33,35.25,35.25,0,0,0,6.35-3.26c3.8,2.41,13.11,7.58,14.31,8.7"/><path class="cls-1" d="M417.3,128.34H342.89a30.67,30.67,0,0,0,2.92,12.84,31,31,0,0,0,7.34,9.77,32.55,32.55,0,0,0,10.48,6.21,35.53,35.53,0,0,0,12.21,2.16,33.52,33.52,0,0,0,14.38-3.14,32.38,32.38,0,0,0,11.23-8.44l6.59,5a39.83,39.83,0,0,1-13.74,10.35,42.38,42.38,0,0,1-18.5,4,43.64,43.64,0,0,1-16.25-3,41.59,41.59,0,0,1-13.18-8.24,39.47,39.47,0,0,1-8.91-12.28,36.08,36.08,0,0,1,0-30.15,40.21,40.21,0,0,1,8.91-12.35,41.94,41.94,0,0,1,13.18-8.38,44.45,44.45,0,0,1,32.28-.07,42.06,42.06,0,0,1,13.1,8.24,39.5,39.5,0,0,1,8.92,12.28A37.17,37.17,0,0,1,417.3,128.34Zm-9.44-7a31.94,31.94,0,0,0-12.88-18,33.64,33.64,0,0,0-9.28-4.4,34.87,34.87,0,0,0-9.89-1.46,37.59,37.59,0,0,0-10,1.39,32.15,32.15,0,0,0-9.36,4.33,31.63,31.63,0,0,0-7.71,7.47,31.12,31.12,0,0,0-5,10.68Z"/><path class="cls-1" d="M473.79,95.64a40,40,0,0,1,17.37,3.87,38.54,38.54,0,0,1,13.78,11V97.11h9.14v72.58h-9.14V156.08a35.78,35.78,0,0,1-13.7,11.17,42,42,0,0,1-33.1,1,39,39,0,0,1-21.2-20.1,34.7,34.7,0,0,1-3.14-14.64,35.14,35.14,0,0,1,3.14-14.73,38.73,38.73,0,0,1,21.27-20.17A41.53,41.53,0,0,1,473.79,95.64Zm31.3,37.69a27.25,27.25,0,0,0-2.47-11.52A30.47,30.47,0,0,0,486.07,106a31.62,31.62,0,0,0-12-2.3A30.71,30.71,0,0,0,462,106.11a31.68,31.68,0,0,0-9.81,6.42,30.61,30.61,0,0,0-6.67,9.49,28.27,28.27,0,0,0-.07,23,29.79,29.79,0,0,0,6.59,9.43,30.92,30.92,0,0,0,9.81,6.34,32.43,32.43,0,0,0,24.19-.06,31.89,31.89,0,0,0,9.89-6.43,30.9,30.9,0,0,0,6.66-9.42,27.07,27.07,0,0,0,2.49-11.55Z"/><path d="M279.68,116.57"/><path d="M291,108"/><path d="M299.42,100.51"/><path d="M306.78,87.61"/><path d="M291,98.12"/><path d="M282.56,100"/><path d="M274.88,98.94"/><path d="M283.53,99.43"/><path d="M287.58,98.4"/><path d="M289.59,97.64"/><path d="M290.58,97.2"/><path d="M262.46,105.22"/><path d="M257.77,101"/><path d="M256.8,99.75"/><path d="M256,98.45"/><path d="M254.3,95.07"/><path d="M254,94"/><path d="M253.64,93"/><path d="M253,90.32"/><path d="M252.71,87.69"/><path d="M252.66,85.8"/><path d="M253.2,80.63"/><path d="M253.43,87.61"/><path d="M255.07,92.56"/><path d="M258.77,98.51"/><path class="cls-1" d="M318,168.39h-9.31V66.91H318Z"/><polygon class="cls-1" points="111.44 102.83 4.76 101.94 0 93.06 103.67 93.06 111.44 102.83"/><path class="cls-1" d="M262.3,222.85l-10.75-14.53v31.54H247.5v-37.8h4.43l12.74,17.22,13-17.22h4.53v37.8h-4.05V208.11L267,222.85Z"/><path class="cls-1" d="M334.81,239.86v-37.8h25.43v3.78H338.86v11.34h18.79V221H338.86v15.12h21.38v3.78Z"/><path class="cls-1" d="M411.3,239.86V202h11.61a21.8,21.8,0,0,1,8.18,1.49,18.82,18.82,0,0,1,6.32,4.08,18.14,18.14,0,0,1,4,6,19.34,19.34,0,0,1,1.43,7.4,19,19,0,0,1-1.43,7.37,18.14,18.14,0,0,1-4,6,18.83,18.83,0,0,1-6.29,4,22.16,22.16,0,0,1-8.21,1.46Zm4-34.08v30.3h7.56a18.11,18.11,0,0,0,6.64-1.16,14.63,14.63,0,0,0,5-3.19,13.88,13.88,0,0,0,3.16-4.8,16.61,16.61,0,0,0,0-11.94,14,14,0,0,0-8.18-8,18.12,18.12,0,0,0-6.64-1.17Z"/><path class="cls-1" d="M513.92,202.06v37.8h-4v-37.8Z"/><path class="cls-1" d="M598.8,202.06l15,37.8h-4.3L605,228.51H588l-4.48,11.34H579.3l15-37.8Zm-2.26,5.07-7,17.61h14Z"/></svg>